0
SECTION
2
HEADER
9
$INSUNITS
70
6
9
$ACADVER
1
AC1014
9
$HANDSEED
5
FFFF
0
ENDSEC
0
SECTION
2
TABLES
0
TABLE
2
VPORT
5
8
100
AcDbSymbolTable
0
ENDTAB
0
TABLE
2
LTYPE
5
5
100
AcDbSymbolTable
0
LTYPE
5
14
100
AcDbSymbolTableRecord
100
AcDbLinetypeTableRecord
2
BYBLOCK
70
0
0
LTYPE
5
15
100
AcDbSymbolTableRecord
100
AcDbLinetypeTableRecord
2
BYLAYER
70
0
0
ENDTAB
0
TABLE
2
LAYER
5
2
100
AcDbSymbolTable
70
2
0
LAYER
5
50
100
AcDbSymbolTableRecord
100
AcDbLayerTableRecord
2
0
70
0
6
CONTINUOUS
0
ENDTAB
0
TABLE
2
STYLE
5
3
100
AcDbSymbolTable
70
1
0
STYLE
5
11
100
AcDbSymbolTableRecord
100
AcDbTextStyleTableRecord
2
STANDARD
70
0
0
ENDTAB
0
TABLE
2
VIEW
5
6
100
AcDbSymbolTable
70
0
0
ENDTAB
0
TABLE
2
UCS
5
7
100
AcDbSymbolTable
70
0
0
ENDTAB
0
TABLE
2
APPID
5
9
100
AcDbSymbolTable
70
2
0
APPID
5
12
100
AcDbSymbolTableRecord
100
AcDbRegAppTableRecord
2
ACAD
70
0
0
ENDTAB
0
TABLE
2
DIMSTYLE
5
A
100
AcDbSymbolTable
70
1
0
ENDTAB
0
TABLE
2
BLOCK_RECORD
5
1
100
AcDbSymbolTable
70
1
0
BLOCK_RECORD
5
1F
100
AcDbSymbolTableRecord
100
AcDbBlockTableRecord
2
*MODEL_SPACE
0
BLOCK_RECORD
5
1B
100
AcDbSymbolTableRecord
100
AcDbBlockTableRecord
2
*PAPER_SPACE
0
ENDTAB
0
ENDSEC
0
SECTION
2
BLOCKS
0
BLOCK
5
20
100
AcDbEntity
100
AcDbBlockBegin
2
*MODEL_SPACE
0
ENDBLK
5
21
100
AcDbEntity
100
AcDbBlockEnd
0
BLOCK
5
1C
100
AcDbEntity
100
AcDbBlockBegin
2
*PAPER_SPACE
0
ENDBLK
5
1D
100
AcDbEntity
100
AcDbBlockEnd
0
ENDSEC
0
SECTION
2
ENTITIES
0
LWPOLYLINE
5
100
100
AcDbEntity
8
0
100
AcDbPolyline
90
18
70
1
43
0.0
10
0.046252822912999821
20
6.0505795224563999
10
0.046252822912999821
20
1.5505795224563996
42
0.41421356237309509
10
1.5462528229129604
20
0.050579522456399961
10
18.504560831017539
20
0.050579522456399961
42
0.4224929608231886
10
20.046252822912969
20
1.5505795224564001
10
20.046252822912962
20
2.1260797226165598
42
0.85261121327857603
10
17.121252822912972
20
2.594454572496451
42
-0.32397989705995756
10
16.64625282291296
20
2.2505795224564098
10
3.4462528229129612
20
2.2505795224563996
42
-0.4142135623730957
10
2.9462528229129599
20
2.7505795224563996
10
2.9462528229129599
20
4.8505795224563997
42
-0.41421356237309437
10
3.4462528229129603
20
5.3505795224563997
10
16.64625282291297
20
5.3505795224563988
42
-0.32397989705994701
10
17.121252822912961
20
5.0067044724163576
42
0.85261121327857603
10
20.046252822912962
20
5.4750793222962502
10
20.046252822912962
20
6.0505795224563999
42
0.41421356237309509
10
18.546252822912962
20
7.5505795224563999
10
1.5462528229129613
20
7.5505795224564007
42
0.41421356237309542
0
LWPOLYLINE
5
101
100
AcDbEntity
8
0
100
AcDbPolyline
90
18
70
1
43
0.0
10
1.04625282291296
20
1.5505795224564001
10
1.0462528229129597
20
6.0505795224563999
42
-0.41421356237309387
10
1.54625282291296
20
6.5505795224563999
10
18.546252822912962
20
6.5505795224563999
42
-0.41421356237309509
10
19.046252822912962
20
6.0505795224563999
10
19.046252822912962
20
5.4750793222962502
42
-0.85261121327857925
10
18.07125282291296
20
5.3189543723362895
42
0.3239798970599484
10
16.64625282291297
20
6.3505795224563997
10
3.4462528229129612
20
6.3505795224563997
42
0.41421356237309481
10
1.9462528229129601
20
4.8505795224563997
10
1.9462528229129612
20
2.7505795224563996
42
0.41421356237309509
10
3.4462528229129603
20
1.2505795224563998
10
16.646252822912963
20
1.25057952245641
42
0.32397989705994945
10
18.071252822912967
20
2.2822046725765164
42
-0.85261121327858447
10
19.046252822912972
20
2.1260797226165593
10
19.046252822912962
20
1.5505795224564001
42
-0.41421356237309553
10
18.546252822912962
20
1.0505795224564001
10
1.5462528229129613
20
1.0505795224564001
42
-0.4142135623730957
0
LWPOLYLINE
5
102
100
AcDbEntity
8
0
100
AcDbPolyline
90
18
70
1
43
0.0
10
0.54625282291295807
20
6.0505795224563999
10
0.54625282291299981
20
1.5505795224563996
42
0.41421356237309509
10
1.5462528229129604
20
0.55057952245643971
10
18.51221311896116
20
0.55057952245640041
42
0.42436063450296874
10
19.546252822912969
20
1.5504731781220389
10
19.546252822912962
20
2.126079722616554
42
0.85261121327857858
10
17.59625282291297
20
2.4383296225364863
42
-0.323979897059956
10
16.646252822912949
20
1.75057952245641
10
3.4462528229129612
20
1.7505795224563998
42
-0.41421356237309537
10
2.4462528229129599
20
2.7505795224563996
10
2.4462528229129599
20
4.8505795224563997
42
-0.41421356237309448
10
3.4462528229129594
20
5.8505795224563997
10
16.64625282291297
20
5.8505795224563988
42
-0.32397989705994951
10
17.596252822912962
20
5.1628294223763147
42
0.85261121327857348
10
19.546252822912965
20
5.475079322296251
10
19.546252822912962
20
6.0505795224563999
42
0.41421356237309509
10
18.546252822912962
20
7.0505795224563999
10
1.5462528229129613
20
7.0505795224564007
42
0.41421356237309565
0
ENDSEC
0
SECTION
2
OBJECTS
0
DICTIONARY
5
C
100
AcDbDictionary
3
ACAD_GROUP
350
D
3
ACAD_MLINESTYLE
350
17
0
DICTIONARY
5
D
100
AcDbDictionary
0
DICTIONARY
5
1A
330
C
100
AcDbDictionary
0
DICTIONARY
5
17
100
AcDbDictionary
0
ENDSEC
0
EOF
