0
SECTION
2
HEADER
9
$INSUNITS
70
6
9
$ACADVER
1
AC1014
9
$HANDSEED
5
FFFF
0
ENDSEC
0
SECTION
2
TABLES
0
TABLE
2
VPORT
5
8
100
AcDbSymbolTable
0
ENDTAB
0
TABLE
2
LTYPE
5
5
100
AcDbSymbolTable
0
LTYPE
5
14
100
AcDbSymbolTableRecord
100
AcDbLinetypeTableRecord
2
BYBLOCK
70
0
0
LTYPE
5
15
100
AcDbSymbolTableRecord
100
AcDbLinetypeTableRecord
2
BYLAYER
70
0
0
ENDTAB
0
TABLE
2
LAYER
5
2
100
AcDbSymbolTable
70
2
0
LAYER
5
50
100
AcDbSymbolTableRecord
100
AcDbLayerTableRecord
2
0
70
0
6
CONTINUOUS
0
ENDTAB
0
TABLE
2
STYLE
5
3
100
AcDbSymbolTable
70
1
0
STYLE
5
11
100
AcDbSymbolTableRecord
100
AcDbTextStyleTableRecord
2
STANDARD
70
0
0
ENDTAB
0
TABLE
2
VIEW
5
6
100
AcDbSymbolTable
70
0
0
ENDTAB
0
TABLE
2
UCS
5
7
100
AcDbSymbolTable
70
0
0
ENDTAB
0
TABLE
2
APPID
5
9
100
AcDbSymbolTable
70
2
0
APPID
5
12
100
AcDbSymbolTableRecord
100
AcDbRegAppTableRecord
2
ACAD
70
0
0
ENDTAB
0
TABLE
2
DIMSTYLE
5
A
100
AcDbSymbolTable
70
1
0
ENDTAB
0
TABLE
2
BLOCK_RECORD
5
1
100
AcDbSymbolTable
70
1
0
BLOCK_RECORD
5
1F
100
AcDbSymbolTableRecord
100
AcDbBlockTableRecord
2
*MODEL_SPACE
0
BLOCK_RECORD
5
1B
100
AcDbSymbolTableRecord
100
AcDbBlockTableRecord
2
*PAPER_SPACE
0
ENDTAB
0
ENDSEC
0
SECTION
2
BLOCKS
0
BLOCK
5
20
100
AcDbEntity
100
AcDbBlockBegin
2
*MODEL_SPACE
0
ENDBLK
5
21
100
AcDbEntity
100
AcDbBlockEnd
0
BLOCK
5
1C
100
AcDbEntity
100
AcDbBlockBegin
2
*PAPER_SPACE
0
ENDBLK
5
1D
100
AcDbEntity
100
AcDbBlockEnd
0
ENDSEC
0
SECTION
2
ENTITIES
0
LWPOLYLINE
5
100
100
AcDbEntity
8
0
100
AcDbPolyline
90
28
70
1
43
0.0
10
8.3999986648559606
20
2.2000000000000002
10
3.3999999999999999
20
2.2000000000000002
42
-0.32397989705995067
10
2.9250000000000003
20
2.54387505004004
42
0.85261121327857947
10
0
20
2.0755002001601599
10
-1.1368683772161603e-15
20
1.5
42
0.41421356237309515
10
1.5000000000000002
20
0
10
18.5
20
1.9895196601282807e-15
42
0.41421356237309442
10
20
20
1.5000000000000002
10
20
20
2.0755002001601599
42
0.85261121327857947
10
17.075000000000003
20
2.5438750500400391
42
-0.32397989705995012
10
16.600000000000001
20
2.2000000000000002
10
11.600001335144002
20
2.1999999999999988
42
-0.4142135623730957
10
11.100001335144
20
2.7000000000000002
10
11.100001335144
20
4.7999999999999998
42
-0.41421356237309509
10
11.600001335144
20
5.2999999999999998
10
16.600000000000001
20
5.2999999999999998
42
-0.32397989705995056
10
17.075000000000003
20
4.9561249499599604
42
0.8526112132785767
10
20
20
5.4244997998398503
10
20
20
6
42
0.41421356237309509
10
18.5
20
7.5
10
1.5
20
7.5
42
0.41421356237309465
10
-2.8421709430404008e-16
20
6
10
-2.8421709430404008e-16
20
5.4244997998398405
42
0.85261121327857947
10
2.9250000000000003
20
4.9561249499599604
42
-0.32397989705994951
10
3.3999999999999999
20
5.2999999999999998
10
8.3999986648559606
20
5.2999999999999998
42
-0.41421356237309509
10
8.8999986648559606
20
4.7999999999999998
10
8.8999986648559606
20
2.7000000000000002
42
-0.41421356237309509
0
LWPOLYLINE
5
101
100
AcDbEntity
8
0
100
AcDbPolyline
90
28
70
1
43
0.0
10
3.3999999999999999
20
1.2
10
8.3999986648559606
20
1.2
42
0.41421356237309509
10
9.8999986648559606
20
2.7000000000000002
10
9.8999986648559606
20
4.7999999999999998
42
0.41421356237309409
10
8.3999986648559624
20
6.2999999999999998
10
3.3999999999999999
20
6.2999999999999998
42
0.32397989705995062
10
1.9750000000000003
20
5.2683748498798799
42
-0.85261121327857925
10
0.99999999999999978
20
5.4244997998398405
10
1
20
6
42
-0.41421356237309637
10
1.5
20
6.5
10
18.5
20
6.5
42
-0.41421356237309509
10
19
20
6
10
19
20
5.4244997998398503
42
-0.85261121327857992
10
18.025000000000002
20
5.2683748498798915
42
0.32397989705994867
10
16.600000000000001
20
6.2999999999999998
10
11.600001335144
20
6.2999999999999998
42
0.41421356237309509
10
10.100001335144
20
4.7999999999999998
10
10.100001335144
20
2.7000000000000002
42
0.4142135623730952
10
11.600001335144002
20
1.2000000000000011
10
16.600000000000001
20
1.2
42
0.32397989705995023
10
18.025000000000002
20
2.2316251501201196
42
-0.85261121327858025
10
19
20
2.0755002001601599
10
19
20
1.5
42
-0.4142135623730957
10
18.5
20
1
10
1.5
20
1
42
-0.41421356237309509
10
1
20
1.5
10
0.99999999999999989
20
2.0755002001601599
42
-0.85261121327857925
10
1.9750000000000001
20
2.2316251501201201
42
0.32397989705995073
0
LWPOLYLINE
5
102
100
AcDbEntity
8
0
100
AcDbPolyline
90
28
70
1
43
0.0
10
0.49999999999999972
20
5.9999999999999991
10
0.49999999999999961
20
5.4244997998398405
42
0.85261121327857969
10
2.4500000000000006
20
5.1122498999199202
42
-0.32397989705994984
10
3.399999999999999
20
5.7999999999999998
10
8.3999986648559606
20
5.7999999999999998
42
-0.41421356237309509
10
9.3999986648559606
20
4.7999999999999998
10
9.3999986648559606
20
2.7000000000000002
42
-0.41421356237309509
10
8.3999986648559606
20
1.7000000000000004
10
3.3999999999999999
20
1.7
42
-0.32397989705995067
10
2.4500000000000002
20
2.3877501000800798
42
0.85261121327857947
10
0.5
20
2.0755002001601599
10
0.49999999999999889
20
1.4999999999999991
42
0.41421356237309476
10
1.5
20
0.49999999999999889
10
18.5
20
0.500000000000002
42
0.4142135623730942
10
19.499999999999996
20
1.5000000000000007
10
19.5
20
2.0755002001601599
42
0.85261121327857947
10
17.550000000000004
20
2.3877501000800794
42
-0.32397989705995051
10
16.600000000000001
20
1.7
10
11.600001335144
20
1.6999999999999988
42
-0.4142135623730957
10
10.600001335144
20
2.7000000000000011
10
10.600001335144
20
4.7999999999999998
42
-0.41421356237309509
10
11.600001335144
20
5.7999999999999998
10
16.600000000000001
20
5.7999999999999998
42
-0.32397989705995056
10
17.550000000000004
20
5.1122498999199211
42
0.85261121327857503
10
19.500000000000004
20
5.4244997998398503
10
19.5
20
6
42
0.41421356237309509
10
18.5
20
7
10
1.5
20
7
42
0.41421356237309476
0
ENDSEC
0
SECTION
2
OBJECTS
0
DICTIONARY
5
C
100
AcDbDictionary
3
ACAD_GROUP
350
D
3
ACAD_MLINESTYLE
350
17
0
DICTIONARY
5
D
100
AcDbDictionary
0
DICTIONARY
5
1A
330
C
100
AcDbDictionary
0
DICTIONARY
5
17
100
AcDbDictionary
0
ENDSEC
0
EOF
