0
SECTION
2
HEADER
9
$INSUNITS
70
6
9
$ACADVER
1
AC1014
9
$HANDSEED
5
FFFF
0
ENDSEC
0
SECTION
2
TABLES
0
TABLE
2
VPORT
5
8
100
AcDbSymbolTable
0
ENDTAB
0
TABLE
2
LTYPE
5
5
100
AcDbSymbolTable
0
LTYPE
5
14
100
AcDbSymbolTableRecord
100
AcDbLinetypeTableRecord
2
BYBLOCK
70
0
0
LTYPE
5
15
100
AcDbSymbolTableRecord
100
AcDbLinetypeTableRecord
2
BYLAYER
70
0
0
ENDTAB
0
TABLE
2
LAYER
5
2
100
AcDbSymbolTable
70
2
0
LAYER
5
50
100
AcDbSymbolTableRecord
100
AcDbLayerTableRecord
2
0
70
0
6
CONTINUOUS
0
ENDTAB
0
TABLE
2
STYLE
5
3
100
AcDbSymbolTable
70
1
0
STYLE
5
11
100
AcDbSymbolTableRecord
100
AcDbTextStyleTableRecord
2
STANDARD
70
0
0
ENDTAB
0
TABLE
2
VIEW
5
6
100
AcDbSymbolTable
70
0
0
ENDTAB
0
TABLE
2
UCS
5
7
100
AcDbSymbolTable
70
0
0
ENDTAB
0
TABLE
2
APPID
5
9
100
AcDbSymbolTable
70
2
0
APPID
5
12
100
AcDbSymbolTableRecord
100
AcDbRegAppTableRecord
2
ACAD
70
0
0
ENDTAB
0
TABLE
2
DIMSTYLE
5
A
100
AcDbSymbolTable
70
1
0
ENDTAB
0
TABLE
2
BLOCK_RECORD
5
1
100
AcDbSymbolTable
70
1
0
BLOCK_RECORD
5
1F
100
AcDbSymbolTableRecord
100
AcDbBlockTableRecord
2
*MODEL_SPACE
0
BLOCK_RECORD
5
1B
100
AcDbSymbolTableRecord
100
AcDbBlockTableRecord
2
*PAPER_SPACE
0
ENDTAB
0
ENDSEC
0
SECTION
2
BLOCKS
0
BLOCK
5
20
100
AcDbEntity
100
AcDbBlockBegin
2
*MODEL_SPACE
0
ENDBLK
5
21
100
AcDbEntity
100
AcDbBlockEnd
0
BLOCK
5
1C
100
AcDbEntity
100
AcDbBlockBegin
2
*PAPER_SPACE
0
ENDBLK
5
1D
100
AcDbEntity
100
AcDbBlockEnd
0
ENDSEC
0
SECTION
2
ENTITIES
0
LWPOLYLINE
5
100
100
AcDbEntity
8
0
100
AcDbPolyline
90
32
70
1
43
0.0
10
5.8640691525556097
20
0.39999960148931024
10
5.8721848286191696
20
0.39999960148931024
10
6.99988233730262
20
0.39999960148931024
10
8.2003161538187896
20
2.1316282072803005e-15
10
8.5003161538187904
20
1.9895196601282807e-15
42
0.41415183084684098
10
10
20
1.4999999666822594
10
10
20
2.0755008031195192
42
0.41439068270585006
10
8.4990929668985604
20
3.5755005288831452
10
6.6000000000000005
20
3.5755005288831456
42
-0.41421356237309509
10
6.0999997257636256
20
4.0755008031195201
10
6.0999997257636256
20
4.8000006029593587
42
-0.85300288818624537
10
7.0751416756530778
20
4.9556947335296391
42
0.85248068857576298
10
10
20
5.4245004027992092
10
10
20
6.0000006029593589
42
0.41421356237309509
10
8.5
20
7.5000006029593589
10
5.3211560759837502
20
7.5000006029593589
10
4.1280838307469301
20
7.10230985454709
10
2.9930838307469005
20
7.1023084903338187
10
1.79189770249863
20
7.4999992387461001
10
1.5000000302533101
20
7.499999244633349
42
0.41421389152827764
10
1.3583269234735498e-06
20
5.9999989475052589
10
1.9905303273048957e-06
20
5.427162617142149
42
0.41473348779248337
10
1.4999999999999998
20
3.9245000308663793
10
3.3999999999999999
20
3.9245000308663793
42
-0.41421356237309509
10
3.8999999999999999
20
3.4245000308663793
10
3.8999999999999955
20
2.7001629577022688
42
-0.0001623405582541991
10
3.8999999999999946
20
2.6998382765879194
42
-0.85247148760056279
10
2.9249998372836492
20
2.5438761480541294
42
0.85300905525467452
10
8.2422957348171616e-15
20
2.0741223221022693
10
-5.6843418860808016e-16
20
1.500000601253439
42
0.41421356203999338
10
1.5
20
6.0295935923965479e-07
10
4.6640706567200496
20
9.6011366157043035e-08
0
LWPOLYLINE
5
101
100
AcDbEntity
8
0
100
AcDbPolyline
90
31
70
1
43
0.0
10
4.13576894610636
20
0.59999996766505326
10
3.00076894610635
20
0.59999996766505326
10
1.8007689461063501
20
0.99999996766505028
10
1.5000000045103901
20
0.99999996770917621
42
-0.414213565015217
10
0.99999936474981699
20
1.5000006029593593
10
0.99999936474981099
20
2.0755027559497492
42
-0.85261298519721218
10
1.9749999992766538
20
2.2316257554328871
42
0.85261137111979479
10
4.9000002170413
20
2.6999999819060894
10
4.9000002436006902
20
3.4251205113591294
42
0.41409241123629736
10
3.3999999999999999
20
4.9245004027990591
10
1.5
20
4.9245004027990591
42
-0.41421356237309509
10
1
20
5.4245004027990591
10
1
20
6.0000006029592194
42
-0.41421356441354851
10
1.50000000348313
20
6.5000006029593589
10
4.6637542148671702
20
6.5000006029593589
10
5.8637529987368104
20
6.900000204448669
10
5.8718686748003703
20
6.900000204448669
10
6.9995661834838199
20
6.900000204448669
10
8.1999999999999993
20
6.5000006029593589
10
8.5
20
6.5000006029593589
42
-0.41421356237309509
10
9
20
6.0000006029593589
10
8.9999999999999982
20
5.4245004027992092
42
-0.8526112132785707
10
8.0250000000000039
20
5.2683754528392397
42
0.85261121327857969
10
5.1000000000000005
20
4.8000006029593596
10
5.0999999999999996
20
4.0755008031195201
42
0.41421356237309453
10
6.6000000000000005
20
2.5755008031195201
10
8.5
20
2.5755008031195188
42
-0.41421356237309481
10
9
20
2.0755008031195192
10
9
20
1.4999999666822594
42
-0.41421356252242353
10
8.4999999997450804
20
0.99999996668225954
10
5.3357689461063504
20
0.99999996714645023
0
LWPOLYLINE
5
102
100
AcDbEntity
8
0
100
AcDbPolyline
90
39
70
1
43
0.0
10
0.50000199106951271
20
5.4266743394511989
42
0.41485043737646615
10
1.4999999999999998
20
4.4245000308663762
10
3.3999999999999999
20
4.4245000308663798
42
-0.41421356237309509
10
4.4000000000000004
20
3.4245000308663793
10
4.3999999999999995
20
2.7002302013442345
42
-0.00013856632905596313
10
4.3999999736455395
20
2.6996759360338189
42
-0.85247148759981284
10
2.4499996776791089
20
2.3877516836814321
42
0.85309839047951219
10
0.50000000000000822
20
2.0743756364967632
10
0.49999999999999961
20
1.5000006012534315
42
0.41421357360529198
10
1.5000000400550468
20
0.50000060295935955
10
1.8007689461063501
20
0.50000061500667214
10
3.0007688980403255
20
0.30000016508547317
10
4.1357688980403218
20
0.30000007416051694
10
4.664070718893532
20
0.38805033755082824
10
5.3357689460494226
20
0.61194974837929395
10
5.8640691525996207
20
0.69999978427912968
10
6.9998823373466301
20
0.69999978419581799
10
8.200316153892139
20
0.50000000000000222
10
8.5002581385127201
20
0.50000000000000233
42
0.41413795737326636
10
9.5000000000000036
20
1.4999999666822594
10
9.5
20
2.0755008031195192
42
0.41443049264788456
10
8.499259410590458
20
3.0755005288831452
10
6.6000000000000014
20
3.0755005288831456
42
-0.41421356237309537
10
5.5999997257636256
20
4.0755008031195201
10
5.5999997257636256
20
4.800000602959364
42
-0.85283732842959181
10
7.55016364799312
20
5.1117530536397524
42
0.8523851485392191
10
9.5000000000000036
20
5.4245004027992083
10
9.5
20
6.0000006029593589
42
0.41421356237309509
10
8.5
20
7.0000006029593589
10
8.1999999999999993
20
7.0000006029593589
10
6.9995661834838199
20
7.2000004037040144
10
5.8637529987368104
20
7.2000004037040144
10
5.3211560759837502
20
7.1095675816928683
10
4.6637542148671702
20
6.8904336261065966
10
4.1280838307469301
20
6.801155228753224
10
2.9930838307469005
20
6.8011545466465897
10
1.7918983385020131
20
6.9999992387460885
10
1.5000000201688704
20
6.999999244633349
42
0.41421389152827948
10
0.50000135832661896
20
5.999999499323792
0
ENDSEC
0
SECTION
2
OBJECTS
0
DICTIONARY
5
C
100
AcDbDictionary
3
ACAD_GROUP
350
D
3
ACAD_MLINESTYLE
350
17
0
DICTIONARY
5
D
100
AcDbDictionary
0
DICTIONARY
5
1A
330
C
100
AcDbDictionary
0
DICTIONARY
5
17
100
AcDbDictionary
0
ENDSEC
0
EOF
