0
SECTION
2
HEADER
9
$INSUNITS
70
6
9
$ACADVER
1
AC1014
9
$HANDSEED
5
FFFF
0
ENDSEC
0
SECTION
2
TABLES
0
TABLE
2
VPORT
5
8
100
AcDbSymbolTable
0
ENDTAB
0
TABLE
2
LTYPE
5
5
100
AcDbSymbolTable
0
LTYPE
5
14
100
AcDbSymbolTableRecord
100
AcDbLinetypeTableRecord
2
BYBLOCK
70
0
0
LTYPE
5
15
100
AcDbSymbolTableRecord
100
AcDbLinetypeTableRecord
2
BYLAYER
70
0
0
ENDTAB
0
TABLE
2
LAYER
5
2
100
AcDbSymbolTable
70
2
0
LAYER
5
50
100
AcDbSymbolTableRecord
100
AcDbLayerTableRecord
2
0
70
0
6
CONTINUOUS
0
ENDTAB
0
TABLE
2
STYLE
5
3
100
AcDbSymbolTable
70
1
0
STYLE
5
11
100
AcDbSymbolTableRecord
100
AcDbTextStyleTableRecord
2
STANDARD
70
0
0
ENDTAB
0
TABLE
2
VIEW
5
6
100
AcDbSymbolTable
70
0
0
ENDTAB
0
TABLE
2
UCS
5
7
100
AcDbSymbolTable
70
0
0
ENDTAB
0
TABLE
2
APPID
5
9
100
AcDbSymbolTable
70
2
0
APPID
5
12
100
AcDbSymbolTableRecord
100
AcDbRegAppTableRecord
2
ACAD
70
0
0
ENDTAB
0
TABLE
2
DIMSTYLE
5
A
100
AcDbSymbolTable
70
1
0
ENDTAB
0
TABLE
2
BLOCK_RECORD
5
1
100
AcDbSymbolTable
70
1
0
BLOCK_RECORD
5
1F
100
AcDbSymbolTableRecord
100
AcDbBlockTableRecord
2
*MODEL_SPACE
0
BLOCK_RECORD
5
1B
100
AcDbSymbolTableRecord
100
AcDbBlockTableRecord
2
*PAPER_SPACE
0
ENDTAB
0
ENDSEC
0
SECTION
2
BLOCKS
0
BLOCK
5
20
100
AcDbEntity
100
AcDbBlockBegin
2
*MODEL_SPACE
0
ENDBLK
5
21
100
AcDbEntity
100
AcDbBlockEnd
0
BLOCK
5
1C
100
AcDbEntity
100
AcDbBlockBegin
2
*PAPER_SPACE
0
ENDBLK
5
1D
100
AcDbEntity
100
AcDbBlockEnd
0
ENDSEC
0
SECTION
2
ENTITIES
0
LWPOLYLINE
5
100
100
AcDbEntity
8
0
100
AcDbPolyline
90
14
70
1
43
0.0
10
1.9749999992766536
20
2.2316257554328871
42
0.85261137111979513
10
4.9000002170413044
20
2.699999981906092
42
-0.41421356237309537
10
5.4000002170413044
20
3.199999981906092
10
8.5
20
2.5755008031195188
42
-0.41421356237309481
10
9
20
2.0755008031195192
10
9
20
1.4999999666822594
42
-0.41421356252242353
10
8.4999999997450804
20
0.99999996668225954
10
5.3357689461063504
20
0.99999996714645023
10
4.13576894610636
20
0.59999996766505326
10
3.00076894610635
20
0.59999996766505326
10
1.8007689461063501
20
0.99999996766505028
10
1.5000000045103901
20
0.99999996770917654
42
-0.41421356501521678
10
0.99999936474981699
20
1.5000006029593593
10
0.99999936474983009
20
2.0755027559497492
42
-0.85261298519720929
0
LWPOLYLINE
5
101
100
AcDbEntity
8
0
100
AcDbPolyline
90
15
70
1
43
0.0
10
2.9249998372836492
20
2.5438761480541285
42
0.85300905525467452
10
1.2505552149377763e-14
20
2.0741223221022698
10
-5.6843418860808016e-16
20
1.5000006012534395
42
0.41421356203999349
10
1.5000000000000002
20
6.0295935867122061e-07
10
4.6640706567200496
20
9.6011366110815285e-08
10
5.8640691525556097
20
0.39999960148931024
10
6.99988233730262
20
0.39999960148931024
10
8.2003161538187896
20
2.2737367544323206e-15
10
8.5003161538187904
20
1.9895196601282807e-15
42
0.41415183084684098
10
10.000000000000004
20
1.4999999666822592
10
10
20
2.0755008031195188
42
0.41439068270585011
10
8.4990929668985604
20
3.5755005288831452
10
5.4000002364276307
20
4.1999999819060934
42
0.41421356237309509
10
3.9000002170413031
20
2.7000000012924184
10
3.9000000102541192
20
2.6998382765845905
42
-0.85247148901663605
0
LWPOLYLINE
5
102
100
AcDbEntity
8
0
100
AcDbPolyline
90
19
70
1
43
0.0
10
4.4000002583266209
20
2.6997126308409323
10
4.3999998541473593
20
2.6993965290643929
42
-0.85235088265144121
10
2.4499996771664163
20
2.3877516852412728
42
0.85309838977175756
10
0.50000000000001232
20
2.0743756364933579
10
0.49999999999999944
20
1.5000006012534279
42
0.41421322908018826
10
1.4999988637726347
20
0.50000060296069604
10
1.8007688659963037
20
0.50000026121758889
10
3.000768898040326
20
0.300000165085473
10
4.1357688980403218
20
0.30000007416051683
10
4.664070718893532
20
0.38805033755082818
10
5.3357689460494235
20
0.61194974837929406
10
5.8640691525996207
20
0.69999978427912968
10
6.9998823373466301
20
0.69999978419581799
10
8.2003161538938887
20
0.50000000000000189
10
8.5002581385109561
20
0.50000000000000189
42
0.41413795737378306
10
9.5000000000000053
20
1.4999999666822594
10
9.5
20
2.0755008031195161
42
0.42764357322561092
10
8.4543815830287912
20
3.0744597412311125
10
5.355123499884237
20
3.6989925145394484
42
0.4012087529649675
0
ENDSEC
0
SECTION
2
OBJECTS
0
DICTIONARY
5
C
100
AcDbDictionary
3
ACAD_GROUP
350
D
3
ACAD_MLINESTYLE
350
17
0
DICTIONARY
5
D
100
AcDbDictionary
0
DICTIONARY
5
1A
330
C
100
AcDbDictionary
0
DICTIONARY
5
17
100
AcDbDictionary
0
ENDSEC
0
EOF
