0
SECTION
2
HEADER
9
$INSUNITS
70
6
9
$ACADVER
1
AC1014
9
$HANDSEED
5
FFFF
0
ENDSEC
0
SECTION
2
TABLES
0
TABLE
2
VPORT
5
8
100
AcDbSymbolTable
0
ENDTAB
0
TABLE
2
LTYPE
5
5
100
AcDbSymbolTable
0
LTYPE
5
14
100
AcDbSymbolTableRecord
100
AcDbLinetypeTableRecord
2
BYBLOCK
70
0
0
LTYPE
5
15
100
AcDbSymbolTableRecord
100
AcDbLinetypeTableRecord
2
BYLAYER
70
0
0
ENDTAB
0
TABLE
2
LAYER
5
2
100
AcDbSymbolTable
70
2
0
LAYER
5
50
100
AcDbSymbolTableRecord
100
AcDbLayerTableRecord
2
0
70
0
6
CONTINUOUS
0
ENDTAB
0
TABLE
2
STYLE
5
3
100
AcDbSymbolTable
70
1
0
STYLE
5
11
100
AcDbSymbolTableRecord
100
AcDbTextStyleTableRecord
2
STANDARD
70
0
0
ENDTAB
0
TABLE
2
VIEW
5
6
100
AcDbSymbolTable
70
0
0
ENDTAB
0
TABLE
2
UCS
5
7
100
AcDbSymbolTable
70
0
0
ENDTAB
0
TABLE
2
APPID
5
9
100
AcDbSymbolTable
70
2
0
APPID
5
12
100
AcDbSymbolTableRecord
100
AcDbRegAppTableRecord
2
ACAD
70
0
0
ENDTAB
0
TABLE
2
DIMSTYLE
5
A
100
AcDbSymbolTable
70
1
0
ENDTAB
0
TABLE
2
BLOCK_RECORD
5
1
100
AcDbSymbolTable
70
1
0
BLOCK_RECORD
5
1F
100
AcDbSymbolTableRecord
100
AcDbBlockTableRecord
2
*MODEL_SPACE
0
BLOCK_RECORD
5
1B
100
AcDbSymbolTableRecord
100
AcDbBlockTableRecord
2
*PAPER_SPACE
0
ENDTAB
0
ENDSEC
0
SECTION
2
BLOCKS
0
BLOCK
5
20
100
AcDbEntity
100
AcDbBlockBegin
2
*MODEL_SPACE
0
ENDBLK
5
21
100
AcDbEntity
100
AcDbBlockEnd
0
BLOCK
5
1C
100
AcDbEntity
100
AcDbBlockBegin
2
*PAPER_SPACE
0
ENDBLK
5
1D
100
AcDbEntity
100
AcDbBlockEnd
0
ENDSEC
0
SECTION
2
ENTITIES
0
ARC
5
100
100
AcDbEntity
8
0
100
AcDbCircle
10
1.5
20
5.4245004027990591
30
0
40
1.000000371932684
210
0
220
0
230
1
100
AcDbArc
50
179.89831087448658
51
270
0
LINE
5
101
100
AcDbEntity
8
0
100
AcDbLine
10
1.4999999999999998
20
4.4245000308663753
30
0
11
3.3999999999999999
21
4.4245000308663798
31
0
0
ARC
5
102
100
AcDbEntity
8
0
100
AcDbCircle
10
3.3999999999999999
20
3.4245000308663793
30
0
40
1
210
0
220
-0
230
1
100
AcDbArc
50
0
51
90
0
ARC
5
103
100
AcDbEntity
8
0
100
AcDbCircle
10
3.40000020197808
20
2.7000000368474093
30
0
40
1.0000000150632251
210
0
220
0
230
1
100
AcDbArc
50
198.19484929304502
51
359.9999979086902
0
LINE
5
104
100
AcDbEntity
8
0
100
AcDbLine
10
4.4000002170413044
20
2.7000000002198643
30
0
11
4.4000002436006911
21
3.4251205296729057
31
0
0
ARC
5
105
100
AcDbEntity
8
0
100
AcDbCircle
10
1.49999936155419
20
2.0755027559497492
30
0
40
0.99999999680435969
210
0
220
-0
230
1
100
AcDbArc
50
18.194637187517504
51
180
0
LINE
5
106
100
AcDbEntity
8
0
100
AcDbLine
10
0.49999936474981693
20
1.5000006029593584
30
0
11
0.49999936474983003
21
2.0755027559497474
31
0
0
ARC
5
107
100
AcDbEntity
8
0
100
AcDbCircle
10
1.5
20
1.5000006029593593
30
0
40
1.0000006352501831
210
0
220
0
230
1
100
AcDbArc
50
180
51
270.00000051685191
0
LINE
5
108
100
AcDbEntity
8
0
100
AcDbLine
10
3.0007688980403255
20
0.30000016508547317
30
0
11
1.8007688659963035
21
0.50000026121758911
31
0
0
LINE
5
109
100
AcDbEntity
8
0
100
AcDbLine
10
1.8007689460330014
20
0.49999996766505023
30
0
11
1.5000000090207743
21
0.49999996770917621
31
0
0
LINE
5
110
100
AcDbEntity
8
0
100
AcDbLine
10
4.1357688980403218
20
0.30000007416051694
30
0
11
3.0007688980403255
21
0.30000016508547317
31
0
0
LINE
5
111
100
AcDbEntity
8
0
100
AcDbLine
10
4.6640707188935311
20
0.38805033755082818
30
0
11
4.1357688980403218
21
0.30000007416051694
31
0
0
LINE
5
112
100
AcDbEntity
8
0
100
AcDbLine
10
5.3357689460494226
20
0.61194974837929406
30
0
11
4.6640707188935311
21
0.38805033755082818
31
0
0
LINE
5
113
100
AcDbEntity
8
0
100
AcDbLine
10
5.8721848286631806
20
0.69999978427853426
30
0
11
5.3357689460494226
21
0.61194974837929406
31
0
0
LINE
5
114
100
AcDbEntity
8
0
100
AcDbLine
10
6.9998823373466292
20
0.69999978419581799
30
0
11
5.8721848286631806
21
0.69999978427853426
31
0
0
LINE
5
115
100
AcDbEntity
8
0
100
AcDbLine
10
8.2003161538187896
20
0.50000000000000211
30
0
11
6.9998823373466292
21
0.69999978419581799
31
0
0
ARC
5
116
100
AcDbEntity
8
0
100
AcDbCircle
10
8.5
20
1.4999999666822594
30
0
40
1.0000000000000038
210
-0
220
0
230
1
100
AcDbArc
50
-89.985209752527084
51
0
0
LINE
5
117
100
AcDbEntity
8
0
100
AcDbLine
10
8.2003161538187896
20
0.50000000000000211
30
0
11
8.5002581385127201
21
0.50000000000000233
31
0
0
LINE
5
118
100
AcDbEntity
8
0
100
AcDbLine
10
9.5000000000000036
20
1.4999999666822594
30
0
11
9.5
21
2.0755008031195192
31
0
0
ARC
5
119
100
AcDbEntity
8
0
100
AcDbCircle
10
8.5
20
2.0755008031195192
30
0
40
1
210
0
220
-0
230
1
100
AcDbArc
50
0
51
90.042432651397718
0
LINE
5
120
100
AcDbEntity
8
0
100
AcDbLine
10
8.499259410590458
20
3.0755005288831452
30
0
11
6.6000000000000014
21
3.0755005288831399
31
0
0
ARC
5
121
100
AcDbEntity
8
0
100
AcDbCircle
10
6.6000000000000005
20
4.0755008031195201
30
0
40
1.0000002742363745
210
0
220
0
230
1
100
AcDbArc
50
180
51
270.00000000000006
0
LINE
5
122
100
AcDbEntity
8
0
100
AcDbLine
10
5.5999997257636256
20
4.0755008031195201
30
0
11
5.59999972576363
21
4.8000006029593631
31
0
0
ARC
5
123
100
AcDbEntity
8
0
100
AcDbCircle
10
6.6000000000000005
20
4.8000006029593596
30
0
40
1.0000002742363747
210
0
220
-0
230
1
100
AcDbArc
50
18.164867929756262
51
180
0
ARC
5
124
100
AcDbEntity
8
0
100
AcDbCircle
10
8.5
20
5.4245004027992092
30
0
40
1.0000000000000024
210
0
220
0
230
1
100
AcDbArc
50
198.22487675600613
51
360
0
LINE
5
125
100
AcDbEntity
8
0
100
AcDbLine
10
9.5000000000000018
20
5.4245004027992083
30
0
11
9.5
21
6.0000006029593589
31
0
0
ARC
5
126
100
AcDbEntity
8
0
100
AcDbCircle
10
8.5
20
6.0000006029593589
30
0
40
1
210
0
220
-0
230
1
100
AcDbArc
50
0
51
90
0
LINE
5
127
100
AcDbEntity
8
0
100
AcDbLine
10
8.5
20
7.0000006029593589
30
0
11
6.9995661834838199
21
7.2000004037040144
31
0
0
LINE
5
128
100
AcDbEntity
8
0
100
AcDbLine
10
6.9995661834838199
20
7.2000004037040144
30
0
11
5.8637529987368104
21
7.2000004037040144
31
0
0
LINE
5
129
100
AcDbEntity
8
0
100
AcDbLine
10
5.8637529987368104
20
7.2000004037040144
30
0
11
5.3211560759837502
21
7.1095675816928683
31
0
0
LINE
5
130
100
AcDbEntity
8
0
100
AcDbLine
10
5.3211560759837502
20
7.1095675816928683
30
0
11
4.6637542148671702
21
6.8904336261065966
31
0
0
LINE
5
131
100
AcDbEntity
8
0
100
AcDbLine
10
4.6637542148671702
20
6.8904336261065966
30
0
11
4.1280838307469301
21
6.801155228753224
31
0
0
LINE
5
132
100
AcDbEntity
8
0
100
AcDbLine
10
4.1280838307469301
20
6.801155228753224
30
0
11
3.5605838307469151
21
6.8011548876999068
31
0
0
LINE
5
133
100
AcDbEntity
8
0
100
AcDbLine
10
3.5605838307469151
20
6.8011548876999068
30
0
11
2.9930838307469005
21
6.8011545466465897
31
0
0
LINE
5
134
100
AcDbEntity
8
0
100
AcDbLine
10
2.9930838307469005
20
6.8011545466465897
30
0
11
1.79189770249863
21
6.999999920852729
31
0
0
ARC
5
135
100
AcDbEntity
8
0
100
AcDbCircle
10
1.5
20
6.0000006029593589
30
0
40
0.99999864167399
210
0
220
-0
230
1
100
AcDbArc
50
89.9999988444076
51
180.00006323114718
0
LINE
5
136
100
AcDbEntity
8
0
100
AcDbLine
10
1.5000000201688648
20
6.999999244633349
30
0
11
1.79189770249863
21
6.999999920852729
31
0
0
LINE
5
137
100
AcDbEntity
8
0
100
AcDbLine
10
0.50000135832661907
20
5.999999499323792
30
0
11
0.50000199053002281
21
5.4271631689606785
31
0
0
ARC
5
138
100
AcDbEntity
8
0
100
AcDbCircle
10
6.6000000000000005
20
4.0755008031195201
30
0
40
0.5000002742363745
210
0
220
0
230
1
100
AcDbArc
50
180
51
270
0
LINE
5
139
100
AcDbEntity
8
0
100
AcDbLine
10
5.8721848286191696
20
0.39999960148931024
30
0
11
6.99988233730262
21
0.39999960148931024
31
0
0
ARC
5
140
100
AcDbEntity
8
0
100
AcDbCircle
10
6.6000000000000005
20
4.0755008031195201
30
0
40
1.5000000000000007
210
0
220
0
230
1
100
AcDbArc
50
180
51
270
0
ARC
5
141
100
AcDbEntity
8
0
100
AcDbCircle
10
8.5
20
1.4999999666822594
30
0
40
0.5
210
0
220
0
230
1
100
AcDbArc
50
-90.000000029211648
51
0
0
LINE
5
142
100
AcDbEntity
8
0
100
AcDbLine
10
8.2003161538187896
20
2.1316282072803005e-15
30
0
11
8.5003161538187904
21
1.9895196601282807e-15
31
0
0
LINE
5
143
100
AcDbEntity
8
0
100
AcDbLine
10
8.4990929668985604
20
3.5755005288831452
30
0
11
6.6000000000000005
21
3.5755005288831456
31
0
0
ARC
5
144
100
AcDbEntity
8
0
100
AcDbCircle
10
8.5
20
2.0755008031195192
30
0
40
1.5
210
-0
220
0
230
1
100
AcDbArc
50
0
51
90.034646114505477
0
ARC
5
145
100
AcDbEntity
8
0
100
AcDbCircle
10
8.5
20
1.4999999666822594
30
0
40
1.5000000000000036
210
-0
220
0
230
1
100
AcDbArc
50
270.01207618641848
51
360
0
LINE
5
146
100
AcDbEntity
8
0
100
AcDbLine
10
9
20
2.0755008031195192
30
0
11
9
21
1.4999999666822594
31
0
0
LINE
5
147
100
AcDbEntity
8
0
100
AcDbLine
10
10.000000000000004
20
1.4999999666822592
30
0
11
10
21
2.0755008031195188
31
0
0
ARC
5
148
100
AcDbEntity
8
0
100
AcDbCircle
10
8.5
20
2.0755008031195192
30
0
40
0.5
210
0
220
-0
230
1
100
AcDbArc
50
0
51
90
0
LINE
5
149
100
AcDbEntity
8
0
100
AcDbLine
10
4.6640706567200496
20
9.6011366157043035e-08
30
0
11
5.8640691525556097
21
0.39999960148931024
31
0
0
LINE
5
150
100
AcDbEntity
8
0
100
AcDbLine
10
6.6000000000000005
20
2.5755008031195197
30
0
11
8.5
21
2.5755008031195188
31
0
0
LINE
5
151
100
AcDbEntity
8
0
100
AcDbLine
10
6.99988233730262
20
0.39999960148931024
30
0
11
8.2003161538187896
21
2.1316282072803005e-15
31
0
0
LINE
5
152
100
AcDbEntity
8
0
100
AcDbLine
10
8.4999999997450804
20
0.99999996668225954
30
0
11
5.3357689461063504
21
0.99999996714645023
31
0
0
LINE
5
153
100
AcDbEntity
8
0
100
AcDbLine
10
5.3357689461063504
20
0.99999996714645023
30
0
11
4.13576894610636
21
0.59999996766505326
31
0
0
LINE
5
154
100
AcDbEntity
8
0
100
AcDbLine
10
5.3211560759837502
20
7.5000006029593589
30
0
11
4.1280838307469301
21
7.10230985454709
31
0
0
ARC
5
155
100
AcDbEntity
8
0
100
AcDbCircle
10
6.6000000000000005
20
4.8000006029593596
30
0
40
0.50000027423637428
210
0
220
-0
230
1
100
AcDbArc
50
18.142903182618536
51
180
0
LINE
5
156
100
AcDbEntity
8
0
100
AcDbLine
10
4.6637542148671702
20
6.5000006029593589
30
0
11
5.8637529987368104
21
6.900000204448669
31
0
0
LINE
5
157
100
AcDbEntity
8
0
100
AcDbLine
10
5.8718686748003703
20
6.900000204448669
30
0
11
6.9995661834838199
21
6.900000204448669
31
0
0
ARC
5
158
100
AcDbEntity
8
0
100
AcDbCircle
10
6.6000000000000005
20
4.8000006029593596
30
0
40
1.5000000000000036
210
0
220
-0
230
1
100
AcDbArc
50
18.194872338766743
51
180
0
ARC
5
159
100
AcDbEntity
8
0
100
AcDbCircle
10
8.5
20
5.4245004027992092
30
0
40
1.5000000000000036
210
0
220
0
230
1
100
AcDbArc
50
198.21219539820638
51
360
0
LINE
5
160
100
AcDbEntity
8
0
100
AcDbLine
10
10.000000000000004
20
5.4245004027992083
30
0
11
10
21
6.0000006029593589
31
0
0
LINE
5
161
100
AcDbEntity
8
0
100
AcDbLine
10
4.9000002170413035
20
2.6999999819060907
30
0
11
4.9000002436006902
21
3.4251205113591294
31
0
0
LINE
5
162
100
AcDbEntity
8
0
100
AcDbLine
10
9
20
6.0000006029593589
30
0
11
9
21
5.4245004027992092
31
0
0
ARC
5
163
100
AcDbEntity
8
0
100
AcDbCircle
10
8.5
20
6.0000006029593589
30
0
40
1.5
210
0
220
-0
230
1
100
AcDbArc
50
0
51
90
0
ARC
5
164
100
AcDbEntity
8
0
100
AcDbCircle
10
8.5
20
6.0000006029593589
30
0
40
0.5
210
0
220
-0
230
1
100
AcDbArc
50
0
51
90
0
ARC
5
165
100
AcDbEntity
8
0
100
AcDbCircle
10
3.3999999999999999
20
3.4245000308663793
30
0
40
1.5000003719326775
210
0
220
-0
230
1
100
AcDbArc
50
0.023700603794929522
51
90
0
LINE
5
166
100
AcDbEntity
8
0
100
AcDbLine
10
3.8999999999999999
20
3.4245000308663793
30
0
11
3.8999999999999999
21
2.7001629577024597
31
0
0
ARC
5
167
100
AcDbEntity
8
0
100
AcDbCircle
10
3.3999999999999999
20
3.4245000308663793
30
0
40
0.5
210
0
220
-0
230
1
100
AcDbArc
50
0
51
90
0
ARC
5
168
100
AcDbEntity
8
0
100
AcDbCircle
10
1.49999936155419
20
2.0755027559497492
30
0
40
1.4999999967535158
210
0
220
-0
230
1
100
AcDbArc
50
18.194813765932924
51
180.05272869646058
0
LINE
5
169
100
AcDbEntity
8
0
100
AcDbLine
10
4.1280838307469301
20
7.10230985454709
30
0
11
2.9930838307469005
21
7.1023084903338187
31
0
0
LINE
5
170
100
AcDbEntity
8
0
100
AcDbLine
10
1.4999999999999998
20
3.9245000308663762
30
0
11
3.3999999999999999
21
3.9245000308663793
31
0
0
LINE
5
171
100
AcDbEntity
8
0
100
AcDbLine
10
6.0999997257636256
20
4.0755008031195201
30
0
11
6.0999997257636256
21
4.8000006029593587
31
0
0
LINE
5
172
100
AcDbEntity
8
0
100
AcDbLine
10
3.3999999999999999
20
4.9245004027990573
30
0
11
1.5
21
4.92450040279906
31
0
0
LINE
5
173
100
AcDbEntity
8
0
100
AcDbLine
10
1.50000000348313
20
6.5000006029593589
30
0
11
4.6637542148671702
21
6.5000006029593589
31
0
0
ARC
5
174
100
AcDbEntity
8
0
100
AcDbCircle
10
3.40000020197808
20
2.7000000368474093
30
0
40
1.5000000150632253
210
0
220
0
230
1
100
AcDbArc
50
198.19484929304502
51
359.9999979086902
0
LINE
5
175
100
AcDbEntity
8
0
100
AcDbLine
10
2.9930838307469005
20
7.1023084903338187
30
0
11
1.79189770249863
21
7.4999992387461001
31
0
0
LINE
5
176
100
AcDbEntity
8
0
100
AcDbLine
10
1.3583269234735498e-06
20
5.9999989475052589
30
0
11
1.9905303272338398e-06
21
5.427162617142149
31
0
0
LINE
5
177
100
AcDbEntity
8
0
100
AcDbLine
10
1.5
20
6.0295935867122061e-07
30
0
11
4.6640706567200496
21
9.6011366157043035e-08
31
0
0
LINE
5
178
100
AcDbEntity
8
0
100
AcDbLine
10
5.099999999999997
20
4.8000006029593587
30
0
11
5.0999999999999996
21
4.0755008031195201
31
0
0
ARC
5
179
100
AcDbEntity
8
0
100
AcDbCircle
10
1.4999999999999989
20
6.0000006029593607
30
0
40
0.49999999999999889
210
0
220
-0
230
1
100
AcDbArc
50
89.999999600862566
51
180
0
LINE
5
180
100
AcDbEntity
8
0
100
AcDbLine
10
1.79189770249863
20
7.4999992387461001
30
0
11
1.5000000302533105
21
7.499999244633349
31
0
0
ARC
5
181
100
AcDbEntity
8
0
100
AcDbCircle
10
1.5
20
5.4245004027990591
30
0
40
1.5000003719326835
210
0
220
0
230
1
100
AcDbArc
50
179.898310874483
51
270
0
LINE
5
182
100
AcDbEntity
8
0
100
AcDbLine
10
3.00076894610635
20
0.59999996766505326
30
0
11
1.8007689461063501
21
0.99999996766505028
31
0
0
LINE
5
183
100
AcDbEntity
8
0
100
AcDbLine
10
1
20
5.4245004027990591
30
0
11
1
21
6.0000006029592194
31
0
0
ARC
5
184
100
AcDbEntity
8
0
100
AcDbCircle
10
1.5
20
6.0000006029593589
30
0
40
1.4999986416739901
210
0
220
-0
230
1
100
AcDbArc
50
89.999998844407614
51
180.00006323114718
0
ARC
5
185
100
AcDbEntity
8
0
100
AcDbCircle
10
1.49999936155419
20
2.0755027559497492
30
0
40
0.4999999968043593
210
0
220
-0
230
1
100
AcDbArc
50
18.194637187517547
51
180
0
ARC
5
186
100
AcDbEntity
8
0
100
AcDbCircle
10
1.5
20
5.4245004027990591
30
0
40
0.5
210
0
220
0
230
1
100
AcDbArc
50
180
51
270
0
LINE
5
187
100
AcDbEntity
8
0
100
AcDbLine
10
1.2221335055073723e-14
20
2.0741223221022702
30
0
11
-4.4408920985006262e-16
21
1.500000601253439
31
0
0
ARC
5
188
100
AcDbEntity
8
0
100
AcDbCircle
10
3.4000000165020698
20
2.7000006171452196
30
0
40
0.50000002010650624
210
0
220
0
230
1
100
AcDbArc
50
198.19481357778071
51
359.98139714249527
0
ARC
5
189
100
AcDbEntity
8
0
100
AcDbCircle
10
1.5
20
1.5000006029593593
30
0
40
0.50000063525018301
210
0
220
0
230
1
100
AcDbArc
50
180
51
270.00000051685191
0
LINE
5
190
100
AcDbEntity
8
0
100
AcDbLine
10
8.5
20
7.5000006029593589
30
0
11
5.3211560759837502
21
7.5000006029593589
31
0
0
LINE
5
191
100
AcDbEntity
8
0
100
AcDbLine
10
4.13576894610636
20
0.59999996766505326
30
0
11
3.00076894610635
21
0.59999996766505326
31
0
0
ARC
5
192
100
AcDbEntity
8
0
100
AcDbCircle
10
8.5
20
5.4245004027992092
30
0
40
0.49999999999999972
210
0
220
0
230
1
100
AcDbArc
50
-161.80512766123206
51
0
0
LINE
5
193
100
AcDbEntity
8
0
100
AcDbLine
10
6.9995661834838199
20
6.900000204448669
30
0
11
8.1999999999999993
21
6.5000006029593589
31
0
0
LINE
5
194
100
AcDbEntity
8
0
100
AcDbLine
10
0.99999936474981699
20
1.5000006029593593
30
0
11
0.99999936474983031
21
2.0755027559497492
31
0
0
LINE
5
195
100
AcDbEntity
8
0
100
AcDbLine
10
1.8007689461063501
20
0.99999996766505028
30
0
11
1.5000000045103901
21
0.99999996770917621
31
0
0
ARC
5
196
100
AcDbEntity
8
0
100
AcDbCircle
10
1.5
20
1.5000006029593593
30
0
40
1.5000000000000007
210
0
220
0
230
1
100
AcDbArc
50
180
51
270
0
LINE
5
197
100
AcDbEntity
8
0
100
AcDbLine
10
8.1999999999999993
20
6.5000006029593589
30
0
11
8.5
21
6.5000006029593589
31
0
0
ENDSEC
0
SECTION
2
OBJECTS
0
DICTIONARY
5
C
100
AcDbDictionary
3
ACAD_GROUP
350
D
3
ACAD_MLINESTYLE
350
17
0
DICTIONARY
5
D
100
AcDbDictionary
0
DICTIONARY
5
1A
330
C
100
AcDbDictionary
0
DICTIONARY
5
17
100
AcDbDictionary
0
ENDSEC
0
EOF
