0
SECTION
2
HEADER
9
$INSUNITS
70
6
9
$ACADVER
1
AC1014
9
$HANDSEED
5
FFFF
0
ENDSEC
0
SECTION
2
TABLES
0
TABLE
2
VPORT
5
8
100
AcDbSymbolTable
0
ENDTAB
0
TABLE
2
LTYPE
5
5
100
AcDbSymbolTable
0
LTYPE
5
14
100
AcDbSymbolTableRecord
100
AcDbLinetypeTableRecord
2
BYBLOCK
70
0
0
LTYPE
5
15
100
AcDbSymbolTableRecord
100
AcDbLinetypeTableRecord
2
BYLAYER
70
0
0
ENDTAB
0
TABLE
2
LAYER
5
2
100
AcDbSymbolTable
70
2
0
LAYER
5
50
100
AcDbSymbolTableRecord
100
AcDbLayerTableRecord
2
0
70
0
6
CONTINUOUS
0
ENDTAB
0
TABLE
2
STYLE
5
3
100
AcDbSymbolTable
70
1
0
STYLE
5
11
100
AcDbSymbolTableRecord
100
AcDbTextStyleTableRecord
2
STANDARD
70
0
0
ENDTAB
0
TABLE
2
VIEW
5
6
100
AcDbSymbolTable
70
0
0
ENDTAB
0
TABLE
2
UCS
5
7
100
AcDbSymbolTable
70
0
0
ENDTAB
0
TABLE
2
APPID
5
9
100
AcDbSymbolTable
70
2
0
APPID
5
12
100
AcDbSymbolTableRecord
100
AcDbRegAppTableRecord
2
ACAD
70
0
0
ENDTAB
0
TABLE
2
DIMSTYLE
5
A
100
AcDbSymbolTable
70
1
0
ENDTAB
0
TABLE
2
BLOCK_RECORD
5
1
100
AcDbSymbolTable
70
1
0
BLOCK_RECORD
5
1F
100
AcDbSymbolTableRecord
100
AcDbBlockTableRecord
2
*MODEL_SPACE
0
BLOCK_RECORD
5
1B
100
AcDbSymbolTableRecord
100
AcDbBlockTableRecord
2
*PAPER_SPACE
0
ENDTAB
0
ENDSEC
0
SECTION
2
BLOCKS
0
BLOCK
5
20
100
AcDbEntity
100
AcDbBlockBegin
2
*MODEL_SPACE
0
ENDBLK
5
21
100
AcDbEntity
100
AcDbBlockEnd
0
BLOCK
5
1C
100
AcDbEntity
100
AcDbBlockBegin
2
*PAPER_SPACE
0
ENDBLK
5
1D
100
AcDbEntity
100
AcDbBlockEnd
0
ENDSEC
0
SECTION
2
ENTITIES
0
LWPOLYLINE
5
100
100
AcDbEntity
8
0
100
AcDbPolyline
90
14
70
1
43
0.0
10
0.99999936474981699
20
1.5000006029593593
10
0.99999936474981099
20
2.0755027559497492
42
-0.85261298519721218
10
1.9749999992766538
20
2.2316257554328871
42
0.32398000817053429
10
3.4000002019780795
20
1.2000000217841842
10
6.6000000000000005
20
2.5755008031195201
10
8.5
20
2.5755008031195183
42
-0.41421356237309448
10
9
20
2.0755008031195192
10
9
20
1.4999999666822594
42
-0.41421356252242353
10
8.4999999997450804
20
0.99999996668225954
10
5.3357689461063504
20
0.99999996714645023
10
4.13576894610636
20
0.59999996766505326
10
3.00076894610635
20
0.59999996766505326
10
1.8007689461063501
20
0.99999996766505028
10
1.5000000045103901
20
0.99999996770917654
42
-0.41421356501521678
0
LWPOLYLINE
5
101
100
AcDbEntity
8
0
100
AcDbPolyline
90
14
70
1
43
0.0
10
2.9249998372836492
20
2.543876148054129
42
0.85300905525467452
10
1.2221335055073723e-14
20
2.0741223221022702
10
-5.6843418860808016e-16
20
1.5000006012534395
42
0.41421356203999349
10
1.5000000000000002
20
6.0295935867122061e-07
10
4.6640706567200496
20
9.6011366110815285e-08
10
5.8640691525556097
20
0.39999960148931024
10
6.99988233730262
20
0.39999960148931024
10
8.2003161538187896
20
1.9895196601282807e-15
10
8.5003161538187904
20
1.9895196601282807e-15
42
0.41415183084684098
10
10.000000000000004
20
1.4999999666822592
10
10
20
2.0755008031195192
42
0.41439068270585006
10
8.4990929668985604
20
3.5755005288831452
10
6.6000000000000005
20
3.5755005288831399
10
3.40000020197808
20
2.2000000217356304
42
-0.3239805169355135
0
LWPOLYLINE
5
102
100
AcDbEntity
8
0
100
AcDbPolyline
90
18
70
1
43
0.0
10
0.49999999999999961
20
1.5000006012534284
42
0.41421322908018843
10
1.4999988637726347
20
0.50000060296069604
10
1.8007688659963037
20
0.50000026121758889
10
3.000768898040326
20
0.300000165085473
10
4.1357688980403218
20
0.30000007416051683
10
4.6640707188935311
20
0.38805033755082813
10
5.3357689460494226
20
0.61194974837929406
10
5.8640691525996207
20
0.69999978427912968
10
6.9998823373466292
20
0.69999978419581799
10
8.200316153892139
20
0.50000000000000233
10
8.5002581385109561
20
0.50000000000000189
42
0.41413795737378273
10
9.5000000000000053
20
1.4999999666822592
10
9.5
20
2.0755008031195166
42
0.41443049264788567
10
8.499259410590458
20
3.0755005288831452
10
6.7029088381999591
20
3.0755005288831399
10
3.5196106938494878
20
1.7071791262810383
42
-0.35743585468526395
10
2.4499996776643163
20
2.3877516837258397
42
0.85309839046068037
10
0.5000000000000121
20
2.0743756364935537
0
ENDSEC
0
SECTION
2
OBJECTS
0
DICTIONARY
5
C
100
AcDbDictionary
3
ACAD_GROUP
350
D
3
ACAD_MLINESTYLE
350
17
0
DICTIONARY
5
D
100
AcDbDictionary
0
DICTIONARY
5
1A
330
C
100
AcDbDictionary
0
DICTIONARY
5
17
100
AcDbDictionary
0
ENDSEC
0
EOF
